PathFileType	4	(X/Y/Z)	C:\Users\Basilio\Documents\Thesis Gigler\squatting_fais\c3dfiles\058\SJ_pre4\markers_experimental.trc
DataRate	CameraRate	NumFrames	NumMarkers	Units	OrigDataRate	OrigDataStartFrame	OrigNumFrames
200.000000	200.000000	4	61	mm	200.000000	645	1290
Frame#	Time	FHD			LBHD			RBHD			C7			T10			CLAV			LSHO			LUUPA			LMUPA			LDUPA			LLEP			LMEP			LRAD			LUL			LRFIN			RSHO			RUPA1			RMUPA			RDUPA			RLEP			RMEP			RRAD			RUL			RUFIN			LASI			RASI			USACR			LSACR			RSACR			LTHI1			LTHI2			LTHI3			LTHI4			LLFC			LMFC			LTIB1			LTIB2			LTIB3			LTIB4			LLMAL			LMMAL			LHEE			LMT1			LMT2			LMT5			RTHI			RTHI2			RTHI3			RTHI4			RLFC			RMFC			RTIB1			RTIB2			RTIB3			RTIB4			RLMAL			RMMAL			RHEE			RMT1			RMT2			RMT5			
		X1	Y1	Z1	X2	Y2	Z2	X3	Y3	Z3	X4	Y4	Z4	X5	Y5	Z5	X6	Y6	Z6	X7	Y7	Z7	X8	Y8	Z8	X9	Y9	Z9	X10	Y10	Z10	X11	Y11	Z11	X12	Y12	Z12	X13	Y13	Z13	X14	Y14	Z14	X15	Y15	Z15	X16	Y16	Z16	X17	Y17	Z17	X18	Y18	Z18	X19	Y19	Z19	X20	Y20	Z20	X21	Y21	Z21	X22	Y22	Z22	X23	Y23	Z23	X24	Y24	Z24	X25	Y25	Z25	X26	Y26	Z26	X27	Y27	Z27	X28	Y28	Z28	X29	Y29	Z29	X30	Y30	Z30	X31	Y31	Z31	X32	Y32	Z32	X33	Y33	Z33	X34	Y34	Z34	X35	Y35	Z35	X36	Y36	Z36	X37	Y37	Z37	X38	Y38	Z38	X39	Y39	Z39	X40	Y40	Z40	X41	Y41	Z41	X42	Y42	Z42	X43	Y43	Z43	X44	Y44	Z44	X45	Y45	Z45	X46	Y46	Z46	X47	Y47	Z47	X48	Y48	Z48	X49	Y49	Z49	X50	Y50	Z50	X51	Y51	Z51	X52	Y52	Z52	X53	Y53	Z53	X54	Y54	Z54	X55	Y55	Z55	X56	Y56	Z56	X57	Y57	Z57	X58	Y58	Z58	X59	Y59	Z59	X60	Y60	Z60	X61	Y61	Z61	

646	3.225	93.82437133789064	1074.618408203125	-838.864929199219	-68.69537353515626	1048.53076171875	-910.0985107421877	104.2079238891602	1083.770385742188	-980.2548828125002	-112.6300735473633	985.7688598632815	-928.1589965820315	-371.9606628417969	842.4343261718752	-912.4603271484377	-29.84492301940919	832.2016601562502	-905.3240356445315	9.863530158996584	865.084411621094	-1068.473022460938	-141.9859008789063	886.007507324219	-1244.933471679688	-162.4427185058594	839.464294433594	-1247.597045898438	-196.872055053711	871.3740234375002	-1283.707397460938	-282.1197509765626	855.8254394531252	-1316.118286132813	-317.9121704101563	911.0798339843752	-1273.201538085938	-439.3321533203126	747.6918945312501	-1114.38232421875	-385.0910034179689	709.0547485351564	-1091.01953125	-453.0437927246095	684.6674194335939	-1163.87646484375	-3.172349929809571	894.6121826171877	-743.7452392578126	-169.5892028808594	946.2644042968752	-596.2791748046876	-190.8375701904297	900.9031372070315	-590.4158935546876	-229.8103485107422	933.2527465820315	-560.1565551757814	-298.8500366210938	936.5469970703127	-531.0327758789064	-347.3353576660157	972.504821777344	-599.5338134765626	-414.5454711914064	755.1986694335939	-698.2554321289064	-417.259002685547	704.7012329101564	-634.8854980468751	-374.8015441894532	694.9840698242189	-730.3015136718751	-418.4824829101564	585.0531616210939	-1028.408081054688	-415.2037963867189	583.1837768554689	-799.427917480469	-498.1322631835939	769.822937011719	-903.571472167969	-527.4517211914064	752.8372192382814	-930.8593750000002	-527.4613647460939	752.6237182617189	-874.2181396484377	-340.7304077148438	562.2053222656251	-1145.2578125	-255.9174499511719	557.1558227539064	-1159.3642578125	-230.0847930908204	589.1655883789064	-1131.743041992188	-222.6963195800782	505.5641479492189	-1169.923706054688	-148.5960845947266	461.9060363769532	-1173.866943359375	-118.8746871948242	444.8573608398439	-1052.726928710938	-123.3190612792969	325.7464904785157	-1145.044311523438	-194.1113586425782	323.8080139160157	-1196.547607421875	-160.7233581542969	298.8742065429688	-1176.436889648438	-206.2806549072266	228.9877319335938	-1149.887451171875	-350.4376525878907	90.45411682128908	-1161.71435546875	-319.1494445800782	94.14017486572267	-1075.453002929688	-419.3086242675782	51.19067001342775	-1111.61572265625	-192.6896972656251	62.21865463256837	-1117.94140625	-193.7712860107422	60.25590896606447	-1164.595092773438	-246.2109680175782	35.29817962646485	-1215.10302734375	-440.4403076171876	555.4665527343751	-672.5546875000001	-376.7175598144532	570.3797607421876	-660.0596923828126	-360.8295593261719	598.6376953125001	-666.5911254882814	-316.2762756347657	515.1014404296876	-645.0913085937501	-177.9404754638672	456.0377197265626	-621.2775878906251	-123.876335144043	445.8194885253907	-744.1672973632814	-175.4106597900391	276.7510681152344	-697.0850219726564	-251.3853149414063	226.6634674072266	-633.2301025390626	-219.2291259765626	207.2328643798829	-661.4989013671876	-243.1826629638672	169.1556701660157	-697.6286010742189	-342.3565673828126	93.84133911132814	-657.8192138671876	-301.9585266113282	97.96619415283206	-741.5690307617189	-408.5940856933595	51.68457412719728	-719.8543090820314	-193.0962524414063	55.78488540649415	-682.3829956054689	-202.3513183593751	61.81369781494142	-630.4626464843751	-253.5190124511719	26.77747917175294	-586.5584716796876	
647	3.23	94.65541076660158	1074.631103515625	-838.4792480468752	-68.37449645996095	1048.25830078125	-910.036315917969	104.5217208862305	1083.52392578125	-980.2210693359377	-112.4963531494141	985.6860961914065	-928.048522949219	-371.8218994140626	842.4578857421877	-912.4830322265627	-29.70960807800294	832.0736083984377	-905.2622680664065	10.00060653686524	864.8195800781252	-1068.418701171875	-141.8542785644532	885.7756958007815	-1244.893798828125	-162.2884216308594	839.263122558594	-1247.568237304688	-196.702377319336	871.220397949219	-1283.651245117188	-281.9300231933594	855.6546630859377	-1316.164916992188	-317.7333374023438	911.0296020507815	-1273.144775390625	-439.2594299316407	747.7138061523439	-1114.310668945313	-384.9361572265626	709.0536499023439	-1090.995849609375	-453.1021423339845	684.6704101562501	-1163.840209960938	-3.167634010314942	894.4749755859377	-743.7457275390626	-169.4739379882813	946.0537719726565	-596.1940917968751	-190.7344207763672	900.7461547851565	-590.3699340820314	-229.7380676269532	933.0652465820315	-559.9699096679689	-298.7046508789063	936.5570068359377	-530.9889526367189	-347.0986633300782	972.504333496094	-599.4749145507814	-414.5159912109376	755.1907958984376	-698.2021484375001	-417.5877990722657	704.7207641601564	-634.9066162109376	-374.8110961914063	694.9612426757814	-730.2122802734376	-418.9608764648439	584.6671142578126	-1028.215087890625	-415.7680969238282	582.9747314453126	-799.2190551757815	-498.0547790527345	769.7912597656252	-903.5281372070315	-527.3939819335939	752.8965454101564	-930.8273925781252	-527.4146728515626	752.7283325195314	-874.1871337890627	-340.6065368652344	562.1899414062501	-1145.182861328125	-255.7423858642579	557.2027587890626	-1159.281005859375	-229.9409942626954	589.0789184570314	-1131.686889648438	-222.5921173095704	505.5198059082032	-1169.81640625	-148.4908905029297	461.9305114746095	-1173.727294921875	-118.8790130615235	444.8312988281251	-1052.669067382813	-123.2889404296875	325.7227478027344	-1144.92919921875	-194.0762786865235	323.8239746093751	-1196.449951171875	-160.8573760986328	298.8494567871094	-1176.356811523438	-206.3068237304688	229.0162658691407	-1149.837280273438	-350.4703979492188	90.45822143554689	-1161.731079101563	-319.1149597167969	94.10242462158205	-1075.446411132813	-419.1970214843751	51.08748626708986	-1111.637329101563	-192.6075592041016	62.20054244995119	-1117.928344726563	-193.7950134277344	60.23488998413087	-1164.596313476563	-246.2327880859376	35.63281631469727	-1214.99072265625	-440.636932373047	555.5441284179689	-672.4835815429689	-376.7307739257813	570.4130859375001	-659.9436645507814	-360.8329772949219	598.7281494140626	-666.5907592773439	-316.2837524414063	515.1425781250001	-645.0708007812501	-177.988265991211	456.0531005859376	-621.2204589843751	-123.9528045654297	445.8455810546876	-744.1393432617189	-175.482162475586	276.7324829101563	-697.0067138671876	-251.4643096923829	226.5833282470704	-633.1851806640626	-219.242660522461	207.2067108154297	-661.4367065429689	-243.1220245361329	169.186264038086	-697.5642089843751	-342.4295349121094	93.82742309570314	-657.7945556640626	-301.9655456542969	97.96660614013675	-741.5546875000001	-408.6089477539064	51.66232299804689	-719.8186645507814	-193.1168823242188	55.78597640991212	-682.3401489257814	-202.3703308105469	61.78968048095705	-630.4993286132814	-253.5045928955079	26.7641944885254	-586.5556640625001	
648	3.235	94.77146148681642	1074.33447265625	-838.4532470703127	-68.17752838134767	1048.09814453125	-909.891784667969	104.7936553955078	1083.307983398438	-980.1978149414065	-112.4129257202149	985.584167480469	-927.9335937500002	-371.7224426269532	842.445251464844	-912.4402465820315	-29.43624114990235	831.6304321289065	-905.281188964844	9.991682052612306	864.4780273437502	-1068.347778320313	-141.7144775390625	885.5281982421877	-1244.911865234375	-162.1085815429688	839.0960083007815	-1247.53857421875	-196.4681549072266	871.1822509765627	-1283.709716796875	-281.8402099609376	855.4783935546877	-1316.154663085938	-317.5460815429688	910.994812011719	-1273.145263671875	-439.1640625000001	747.6353149414064	-1114.327026367188	-384.9068298339845	709.0064086914064	-1091.00732421875	-452.9856262207032	684.6877441406251	-1163.800170898438	-3.069832086563111	894.285583496094	-743.6696777343751	-169.2255401611328	945.8171997070315	-596.1944580078126	-190.6390991210938	900.656677246094	-590.2711791992189	-229.657699584961	932.9514160156252	-559.7055664062501	-298.3448791503907	936.542419433594	-531.0338134765626	-346.8246154785157	972.5039672851565	-599.4347534179689	-414.2859191894532	755.4273071289064	-698.1499023437501	-417.431854248047	704.7264404296876	-634.8762817382814	-374.8050537109376	694.9924926757814	-730.1713867187501	-419.4310302734376	584.4625244140626	-1028.325805664063	-416.3900146484376	582.5010986328126	-799.3164672851565	-497.9444274902345	769.7244262695315	-903.4658813476565	-527.3179321289064	752.9694213867189	-930.788513183594	-527.3803100585939	752.7280883789064	-874.1619873046877	-340.5684204101563	562.1743164062501	-1145.122924804688	-255.6016845703126	557.2978515625001	-1159.155029296875	-230.0164489746094	589.0175781250001	-1131.611206054688	-222.3872375488282	505.5220947265626	-1169.6865234375	-148.4193420410157	462.4847412109376	-1173.5166015625	-118.8412780761719	444.8469848632814	-1052.49853515625	-123.2907028198242	325.7796020507813	-1144.856201171875	-194.0065460205079	323.8209838867188	-1196.35791015625	-160.6684875488282	298.8294067382813	-1176.2490234375	-206.2487792968751	229.0119934082032	-1149.772094726563	-350.4068908691407	90.46986389160158	-1161.726806640625	-319.1810302734376	94.08650970458986	-1075.39453125	-419.1903381347657	51.18000793457033	-1111.637817382813	-192.6434478759766	62.20344161987306	-1117.963012695313	-193.743637084961	60.22985458374025	-1164.587890625	-246.1793212890626	35.63694000244141	-1215.0009765625	-440.7095947265626	555.6134033203126	-672.4519653320314	-376.8222656250001	570.5975952148439	-659.8774414062501	-360.8220520019532	598.8168334960939	-666.5440673828126	-316.2886962890626	515.1781005859376	-645.0397949218751	-178.0314331054688	456.1175231933595	-621.0773315429689	-123.9211654663086	446.011688232422	-743.9874877929689	-175.5124969482422	276.8023376464844	-696.9107666015626	-251.4749908447266	226.6292266845704	-633.1150512695314	-219.3292694091797	207.2273254394532	-661.4014282226564	-243.122543334961	169.2366027832032	-697.5758056640626	-342.3785400390626	93.8226776123047	-657.8042602539064	-301.9602966308594	97.98156738281253	-741.5260620117189	-408.6092224121095	51.69647598266603	-719.8101196289064	-193.1089324951172	55.79254531860353	-682.3067626953126	-202.3482055664063	61.83764648437501	-630.4779052734376	-253.4887084960938	26.77165031433106	-586.5598754882814	
649	3.24	94.91645812988283	1074.125854492188	-838.3453369140627	-67.94119262695314	1047.80029296875	-909.8394775390627	104.9940643310547	1083.025024414063	-980.1121215820315	-111.7769393920899	985.3547363281252	-927.999694824219	-371.5612792968751	842.400085449219	-912.4280395507815	-29.31807708740235	831.451599121094	-905.2471923828127	10.27574634552002	864.3377685546877	-1068.238159179688	-141.523666381836	885.3450927734377	-1244.900024414063	-161.9203033447266	839.0074462890627	-1247.480834960938	-196.2849273681641	871.0721435546877	-1283.672729492188	-281.7178039550782	855.366882324219	-1316.122802734375	-317.4249267578126	910.8676757812502	-1273.086547851563	-439.0962829589845	747.6165771484376	-1114.28125	-384.7540588378907	709.0355224609376	-1090.98876953125	-452.8720703125001	684.6714477539064	-1163.811401367188	-2.696548223495484	894.0262451171877	-743.7089233398439	-168.9568023681641	945.703308105469	-596.0855712890626	-190.5760955810547	900.6201782226565	-590.1876220703126	-229.5876159667969	932.830993652344	-559.5567626953126	-298.1553344726563	936.4396972656252	-531.0358276367189	-346.6513671875001	972.4879150390627	-599.3632202148439	-414.2158203125001	755.5260620117189	-698.1207275390626	-417.6557006835939	704.7103881835939	-634.8399047851564	-374.7913208007813	695.0162963867189	-730.0484008789064	-419.8389892578126	584.3358154296876	-1028.414428710938	-416.5996398925782	582.3598022460939	-799.3945922851565	-497.907440185547	769.7288208007815	-903.4920043945315	-527.2812500000001	753.0627441406251	-930.702575683594	-527.3277587890626	752.7938232421876	-874.1506958007815	-340.4060668945313	562.1411132812501	-1145.032592773438	-255.1683807373047	556.1771240234376	-1159.27392578125	-229.9841003417969	588.9600219726564	-1131.4873046875	-222.348129272461	505.4635009765626	-1169.527954101563	-148.3470611572266	462.4767150878907	-1173.347045898438	-118.8343811035157	444.7399902343751	-1052.445556640625	-123.2712173461914	325.7181701660157	-1144.750732421875	-193.9305419921876	323.8190917968751	-1196.22705078125	-160.6443328857422	298.7926025390626	-1176.150634765625	-206.2337799072266	228.9941406250001	-1149.708618164063	-350.4358215332032	90.48962402343751	-1161.739868164063	-319.1446228027344	94.09258270263673	-1075.374633789063	-419.2210083007814	51.13180541992189	-1111.642822265625	-192.6379089355469	62.194149017334	-1117.935913085938	-193.7713317871094	60.25656127929689	-1164.584350585938	-246.2051849365235	35.65938186645509	-1214.991088867188	-440.7112731933595	555.6505126953126	-672.4506835937501	-376.8245849609376	570.6235351562501	-659.8198242187501	-360.8504943847657	598.8713989257814	-666.5108032226564	-316.3302307128907	515.1819458007814	-644.9885253906251	-178.1117706298828	456.1135253906251	-621.0120849609376	-123.9826126098633	446.0178527832032	-743.9210205078126	-175.59375	276.7754516601563	-696.8381347656251	-251.4535675048829	226.6647491455079	-633.1127929687501	-219.4206848144532	207.0872955322266	-661.3074951171876	-243.1265411376954	169.1993560791016	-697.5693359375001	-342.4790649414063	93.79106903076173	-657.7630615234376	-301.9389343261719	98.00907897949222	-741.5014038085939	-408.6163940429689	51.65200805664064	-719.8249511718751	-193.1091766357422	55.78899002075197	-682.3093261718751	-202.3628692626954	61.7996063232422	-630.5219116210939	-253.488021850586	26.75822830200196	-586.4824218750001	
